<svg xmlns="http://www.w3.org/2000/svg" viewBox="-0.5 -0.5 16 16" fill="url(#gradientHover)" aria-hidden="true"
    id="Building-Office-2--Streamline-Heroicons" height="16" width="16">
    <desc>Building Office 2 Streamline Icon: https://streamlinehq.com</desc>
    <path fill-rule="evenodd"
        d="M1.875 1.40625a0.46875 0.46875 0 0 0 0 0.9375v10.3125h-0.46875a0.46875 0.46875 0 0 0 0 0.9375H9.375v-11.25a0.46875 0.46875 0 0 0 0 -0.9375H1.875ZM4.21875 12.1875v-1.40625a0.46875 0.46875 0 0 1 0.46875 -0.46875h1.875a0.46875 0.46875 0 0 1 0.46875 0.46875v1.40625a0.46875 0.46875 0 0 1 -0.46875 0.46875h-1.875a0.46875 0.46875 0 0 1 -0.46875 -0.46875ZM3.75 4.21875A0.46875 0.46875 0 0 1 4.21875 3.75h0.46875a0.46875 0.46875 0 0 1 0 0.9375h-0.46875A0.46875 0.46875 0 0 1 3.75 4.21875ZM4.21875 5.625a0.46875 0.46875 0 0 0 0 0.9375h0.46875a0.46875 0.46875 0 0 0 0 -0.9375h-0.46875ZM3.75 7.96875a0.46875 0.46875 0 0 1 0.46875 -0.46875h0.46875a0.46875 0.46875 0 0 1 0 0.9375h-0.46875a0.46875 0.46875 0 0 1 -0.46875 -0.46875ZM6.5625 3.75a0.46875 0.46875 0 0 0 0 0.9375h0.46875a0.46875 0.46875 0 0 0 0 -0.9375h-0.46875Zm-0.46875 2.34375A0.46875 0.46875 0 0 1 6.5625 5.625h0.46875a0.46875 0.46875 0 0 1 0 0.9375h-0.46875a0.46875 0.46875 0 0 1 -0.46875 -0.46875ZM6.5625 7.5a0.46875 0.46875 0 0 0 0 0.9375h0.46875a0.46875 0.46875 0 0 0 0 -0.9375h-0.46875Zm3.75 -3.28125v9.375h3.28125a0.46875 0.46875 0 0 0 0 -0.9375H13.125v-7.5a0.46875 0.46875 0 0 0 0 -0.9375h-2.8125Zm0.9375 2.8125a0.46875 0.46875 0 0 1 0.46875 -0.46875h0.005a0.46875 0.46875 0 0 1 0.46875 0.46875v0.005a0.46875 0.46875 0 0 1 -0.46875 0.46875h-0.005a0.46875 0.46875 0 0 1 -0.46875 -0.46875v-0.005Zm0.46875 1.40625a0.46875 0.46875 0 0 0 -0.46875 0.46875v0.005c0 0.25875 0.21000000000000002 0.46875 0.46875 0.46875h0.005a0.46875 0.46875 0 0 0 0.46875 -0.46875v-0.005a0.46875 0.46875 0 0 0 -0.46875 -0.46875h-0.005ZM11.25 10.78125a0.46875 0.46875 0 0 1 0.46875 -0.46875h0.005a0.46875 0.46875 0 0 1 0.46875 0.46875v0.005a0.46875 0.46875 0 0 1 -0.46875 0.46875h-0.005a0.46875 0.46875 0 0 1 -0.46875 -0.46875v-0.005Z"
        clip-rule="evenodd" stroke-width="1"></path>
        <linearGradient id="gradientHover" x1="0%" y1="100%" x2="100%" y2="0%">
            <stop offset="0%" style="stop-color:rgb(163, 91, 248);stop-opacity:1" />
            <stop offset="100%" style="stop-color:rgb(71, 80, 235);stop-opacity:1" />
        </linearGradient>
</svg>