<svg xmlns="http://www.w3.org/2000/svg" viewBox="-0.5 -0.5 16 16" fill="url(#gradientHover)"
    id="Potted-Plant-Fill--Streamline-Phosphor-Fill" height="16" width="16">
    <desc>Potted Plant Fill Streamline Icon: https://streamlinehq.com</desc>
    <path
        d="M12.3058125 8.630900390625001h-5.42049609375l1.5837421875 -1.583748046875c0.572583984375 0.28835742187499996 1.203474609375 0.44209570312499996 1.844525390625 0.44947265625 0.6452519531249999 0.00169921875 1.27843359375 -0.17487304687500002 1.82968359375 -0.5102519531249999 1.676326171875 -1.014837890625 2.574556640625 -3.3639550781249996 2.402830078125 -6.28409765625 -0.01672265625 -0.28630078124999997 -0.24515039062500002 -0.5147285156250001 -0.531451171875 -0.531451171875 -2.920142578125 -0.1717265625 -5.269259765625001 0.7265039062499999 -6.284806640625 2.402830078125 -0.660779296875 1.09187109375 -0.6777421875 2.410599609375 -0.060779296875000006 3.674912109375l-1.016958984375 1.016958984375 -0.8628984375000001 -0.8628984375000001c0.424025390625 -0.936392578125 0.393638671875 -1.9081230468750001 -0.098232421875 -2.719435546875C4.922771484375 2.411818359375 3.1616367187499996 1.734076171875 0.979306640625 1.8619921874999998c-0.2857734375 0.01702734375 -0.51371484375 0.244974609375 -0.5307421875 0.5307421875 -0.128625 2.181626953125 0.5498203125 3.9427558593749996 1.821908203125 4.711664062500001 0.42557812500000003 0.259857421875 0.9147832031249999 0.39683203125 1.413427734375 0.395759765625 0.452373046875 -0.00448828125 0.89858203125 -0.105439453125 1.30883203125 -0.296115234375l0.86007421875 0.861486328125 -0.5653710937499999 0.5653710937499999H2.129126953125c-0.43522265625 0 -0.707232421875 0.47114062500000004 -0.48962109374999996 0.848056640625 0.1009921875 0.17492578125 0.28763671874999996 0.28268554687499997 0.48962109374999996 0.28268554687499997h0.6777421875l0.933568359375 4.20282421875c0.11228906250000001 0.519064453125 0.5728300781250001 0.888498046875 1.103888671875 0.885515625h4.74699609375c0.53087109375 0.0024433593750000002 0.99111328125 -0.366755859375 1.103888671875 -0.885515625l0.933568359375 -4.20282421875h0.677033203125c0.43522265625 0 0.70723828125 -0.47114648437500006 0.48962109374999996 -0.848056640625 -0.1009921875 -0.17492578125 -0.28763671874999996 -0.28268554687499997 -0.48962109374999996 -0.28268554687499997Z"
        stroke-width="1"></path>
        <linearGradient id="gradientHover" x1="0%" y1="100%" x2="100%" y2="0%">
            <stop offset="0%" style="stop-color:rgb(163, 91, 248);stop-opacity:1" />
            <stop offset="100%" style="stop-color:rgb(71, 80, 235);stop-opacity:1" />
        </linearGradient>
</svg>