<svg xmlns="http://www.w3.org/2000/svg" viewBox="-0.5 -0.5 16 16" fill="rgb(173, 173, 173)" id="House-Light--Streamline-Phosphor"
    height="16" width="16">
    <desc>House Light Streamline Icon: https://streamlinehq.com</desc>
    <path
        d="M14.242464843750001 6.457541015625 8.242494140625 0.457576171875c-0.410056640625 -0.410103515625 -1.074931640625 -0.410103515625 -1.4849882812500002 0L0.75753515625 6.457541015625c-0.19747265625000002 0.19655273437499998 -0.30817968749999997 0.463880859375 -0.3075 0.7425V14.399999999999999c0 0.24853125 0.201474609375 0.44999999999999996 0.44999999999999996 0.44999999999999996h4.7999765625c0.248525390625 0 0.449994140625 -0.20146875 0.449994140625 -0.44999999999999996v-4.3499765625h2.69998828125V14.399999999999999c0 0.24853125 0.20146875 0.44999999999999996 0.449994140625 0.44999999999999996h4.7999765625c0.248525390625 0 0.44999999999999996 -0.20146875 0.44999999999999996 -0.44999999999999996V7.2000410156250005c0.0006855468750000001 -0.278619140625 -0.11002734374999999 -0.5459472656250001 -0.3075 -0.7425Zm-0.592494140625 7.49246484375h-3.8999824218750003v-4.3499765625c0 -0.24851953124999998 -0.20148046875 -0.44998828125 -0.44999999999999996 -0.44999999999999996H5.70001171875c-0.24853710937499998 -0.00001171875 -0.44999999999999996 0.201462890625 -0.44999999999999996 0.44999999999999996v4.3499765625H1.350029296875V7.2000410156250005c-0.00022851562499999999 -0.039873046875 0.015421875 -0.07819335937500001 0.0435 -0.10650000000000001L7.3935 1.0935703125c0.05867578125 -0.05915625 0.15432421875 -0.05915625 0.21300000000000002 0l5.999970703125 5.999970703125c0.028078125000000002 0.028306640624999997 0.043728515625 0.066626953125 0.0435 0.10650000000000001Z"
        stroke-width="1"></path>
        <linearGradient id="gradientHover" x1="0%" y1="100%" x2="100%" y2="0%">
            <stop offset="0%" style="stop-color:rgb(163, 91, 248);stop-opacity:1" />
            <stop offset="100%" style="stop-color:rgb(71, 80, 235);stop-opacity:1" />
        </linearGradient>
</svg>
