<svg xmlns="http://www.w3.org/2000/svg" viewBox="-0.5 -0.5 16 16" fill="url(#gradientHover)"
    id="House-Fill--Streamline-Phosphor-Fill" height="16" width="16">
    <desc>House Fill Streamline Icon: https://streamlinehq.com</desc>
    <path
        d="M14.556263671875 7.20571875v7.0562578125c0 0.324755859375 -0.263267578125 0.5880234375000001 -0.5880234375000001 0.5880234375000001h-4.11615234375c-0.324755859375 0 -0.5880234375000001 -0.263267578125 -0.5880234375000001 -0.5880234375000001v-3.8221406250000003c0 -0.162375 -0.13163671875 -0.29400585937499996 -0.29401171875000004 -0.29401171875000004h-2.9401054687499997c-0.16238671875 -0.000005859375 -0.29401171875000004 0.13163085937500002 -0.29401171875000004 0.29401171875000004v3.8221406250000003c0 0.324755859375 -0.263267578125 0.5880234375000001 -0.5880234375000001 0.5880234375000001h-4.11615234375c-0.324755859375 0 -0.5880234375000001 -0.263267578125 -0.5880234375000001 -0.5880234375000001V7.20571875c0.000146484375 -0.311853515625 0.12414843749999999 -0.610880859375 0.34473046875 -0.8313164062499999L6.66868359375 0.49418554687500005c0.4592109375 -0.458912109375 1.2034218749999999 -0.458912109375 1.6626328124999998 0l5.880216796875 5.880216796875c0.22058203125 0.220435546875 0.344583984375 0.5194628906250001 0.34473046875 0.8313164062499999Z"
        stroke-width="1"></path>
        
<linearGradient id="gradientHover" x1="0%" y1="100%" x2="100%" y2="0%">
    <stop offset="0%" style="stop-color:rgb(163, 91, 248);stop-opacity:1" />
    <stop offset="100%" style="stop-color:rgb(71, 80, 235);stop-opacity:1" />
</linearGradient>
</svg>