<svg xmlns="http://www.w3.org/2000/svg" viewBox="-0.5 -0.5 16 16" id="Rabbit-Line--Streamline-Mingcute" height="16"
    width="16">
    <desc>Rabbit Line Streamline Icon: https://streamlinehq.com</desc>
    <g fill="none" fill-rule="evenodd">
        <path
            d="M15 0v15H0V0h15ZM7.87125 14.536249999999999l-0.0075 0.00125 -0.044375 0.021875000000000002 -0.0125 0.0025 -0.00875 -0.0025 -0.044375 -0.0225c-0.00625 -0.001875 -0.011875 0 -0.015 0.00375l-0.0025 0.00625 -0.010625 0.2675 0.003125 0.0125 0.00625 0.008125 0.065 0.04625 0.009375 0.0025 0.0075 -0.0025 0.065 -0.04625 0.0075 -0.01 0.0025 -0.010625 -0.010625 -0.266875c-0.00125 -0.00625 -0.005625 -0.010625 -0.01 -0.01125Zm0.165 -0.07062500000000001 -0.00875 0.00125 -0.11499999999999999 0.058124999999999996 -0.00625 0.00625 -0.001875 0.006874999999999999 0.01125 0.26875 0.003125 0.0075 0.005 0.005 0.12562500000000001 0.057499999999999996c0.0075 0.0025 0.014374999999999999 0 0.018125000000000002 -0.005l0.0025 -0.00875 -0.02125 -0.38375c-0.001875 -0.0075 -0.00625 -0.0125 -0.0125 -0.013749999999999998Zm-0.44687499999999997 0.00125a0.014374999999999999 0.014374999999999999 0 0 0 -0.016875 0.00375l-0.00375 0.00875 -0.02125 0.38375c0 0.0075 0.004375 0.0125 0.010625 0.015l0.009375 -0.00125 0.12562500000000001 -0.058124999999999996 0.00625 -0.005 0.001875 -0.006874999999999999 0.01125 -0.26875 -0.001875 -0.0075 -0.00625 -0.00625 -0.11499999999999999 -0.057499999999999996Z"
            stroke-width="1"></path>
        <path fill="rgb(173, 173, 173)"
            d="M4.7825 2.7387499999999996c0.01625 -0.004375 0.201875 -0.0425 0.538125 0.37687499999999996 0.32125000000000004 0.400625 0.66625 1.099375 0.944375 2.1375 0.204375 0.7625 0.33625000000000005 1.5718750000000001 0.385 2.29375a0.625 0.625 0 0 0 0.651875 0.5825 4.43125 4.43125 0 0 1 0.39625 0 0.625 0.625 0 0 0 0.651875 -0.581875c0.04875 -0.7224999999999999 0.18062499999999998 -1.5325 0.385 -2.294375 0.278125 -1.038125 0.623125 -1.736875 0.94375 -2.1375 0.3375 -0.41937500000000005 0.5225 -0.38125 0.53875 -0.37687499999999996 0.01625 0.00375 0.195625 0.06375 0.2775 0.595625 0.0775 0.5075000000000001 0.027499999999999997 1.2850000000000001 -0.250625 2.323125a12.280625 12.280625 0 0 1 -0.8487500000000001 2.249375 0.625 0.625 0 0 0 0.21875 0.80375C10.280000000000001 9.143125 10.625 9.728125 10.625 10.3125c0 0.535625 -0.288125 1.06875 -0.848125 1.48875C9.21625 12.22125 8.412500000000001 12.5 7.5 12.5c-0.9131250000000001 0 -1.71625 -0.278125 -2.276875 -0.6987500000000001C4.663125 11.381250000000001 4.375 10.848125 4.375 10.3125c0 -0.5843750000000001 0.34500000000000003 -1.169375 1.010625 -1.6018750000000002a0.625 0.625 0 0 0 0.21875 -0.80375 12.276875 12.276875 0 0 1 -0.8487500000000001 -2.25c-0.278125 -1.0374999999999999 -0.328125 -1.815 -0.25 -2.3225000000000002 0.08125 -0.53125 0.260625 -0.5918749999999999 0.276875 -0.595625Zm2.6900000000000004 2.190625c-0.3025 -1.129375 -0.7062499999999999 -2.009375 -1.17625 -2.5956249999999996 -0.45499999999999996 -0.566875 -1.103125 -0.999375 -1.8375 -0.8025 -0.7337499999999999 0.19625 -1.0787499999999999 0.895 -1.189375 1.61375 -0.11374999999999999 0.7424999999999999 -0.02375 1.70625 0.279375 2.835625a13.71875 13.71875 0 0 0 0.714375 2.0125C3.58 8.581875 3.125 9.3875 3.125 10.3125c0 1.0174999999999998 0.55125 1.8912499999999999 1.348125 2.48875C5.2700000000000005 13.39875 6.341875 13.75 7.5 13.75c1.1575 0 2.23 -0.35125000000000006 3.026875 -0.94875S11.875 11.33 11.875 10.3125c0 -0.92625 -0.45499999999999996 -1.730625 -1.1375 -2.31875a13.71625 13.71625 0 0 0 0.7137499999999999 -2.0125c0.303125 -1.129375 0.393125 -2.09375 0.279375 -2.83625 -0.110625 -0.71875 -0.455625 -1.4175 -1.189375 -1.61375 -0.734375 -0.196875 -1.3825 0.235625 -1.8375 0.8025 -0.47 0.5862499999999999 -0.8737499999999999 1.46625 -1.17625 2.5956249999999996L7.5 5.03375a13.7375 13.7375 0 0 0 -0.027499999999999997 -0.10437500000000001Zm-0.858125 5.69125a0.9375 0.9375 0 1 1 1.77125 0A0.315 0.315 0 0 0 8.4375 10.625a0.625 0.625 0 1 1 0 1.25 1.5562500000000001 1.5562500000000001 0 0 1 -0.9375 -0.3125 1.5562500000000001 1.5562500000000001 0 0 1 -0.9375 0.3125 0.625 0.625 0 1 1 0 -1.25 0.315 0.315 0 0 0 0.051875000000000004 -0.004375Z"
            stroke-width="1"></path>
    </g>
    <linearGradient id="gradientHover" x1="0%" y1="100%" x2="100%" y2="0%">
        <stop offset="0%" style="stop-color:rgb(163, 91, 248);stop-opacity:1" />
        <stop offset="100%" style="stop-color:rgb(71, 80, 235);stop-opacity:1" />
    </linearGradient>
</svg>