<svg xmlns="http://www.w3.org/2000/svg" viewBox="-0.5 -0.5 16 16" fill="rgb(173, 173, 173)"
    id="Building-Apartment-Light--Streamline-Phosphor" height="16" width="16">
    <desc>Building Apartment Light Streamline Icon: https://streamlinehq.com</desc>
    <path
        d="M14.0625 12.3046875h-0.5859375V4.21875a0.3515625 0.3515625 0 0 0 -0.3515625 -0.3515625h-2.4609375V2.34375a0.3515625 0.3515625 0 0 0 -0.3515625 -0.3515625H4.6875a0.3515625 0.3515625 0 0 0 -0.3515625 0.3515625v3.3984375H1.875a0.3515625 0.3515625 0 0 0 -0.3515625 0.3515625v6.2109375H0.9375a0.3515625 0.3515625 0 0 0 0 0.703125h13.125a0.3515625 0.3515625 0 0 0 0 -0.703125ZM2.2265625 6.4453125h2.4609375a0.3515625 0.3515625 0 0 0 0.3515625 -0.3515625V2.6953125h4.921875v1.5234375a0.3515625 0.3515625 0 0 0 0.3515625 0.3515625h2.4609375v7.734375h-3.984375v-2.4609375a0.3515625 0.3515625 0 0 0 -0.3515625 -0.3515625h-1.875a0.3515625 0.3515625 0 0 0 -0.3515625 0.3515625v2.4609375H2.2265625Zm5.859375 5.859375h-1.171875v-2.109375h1.171875ZM6.6796875 4.21875a0.3515625 0.3515625 0 0 1 0.3515625 -0.3515625h0.9375a0.3515625 0.3515625 0 0 1 0 0.703125h-0.9375a0.3515625 0.3515625 0 0 1 -0.3515625 -0.3515625Zm0 1.875a0.3515625 0.3515625 0 0 1 0.3515625 -0.3515625h0.9375a0.3515625 0.3515625 0 0 1 0 0.703125h-0.9375a0.3515625 0.3515625 0 0 1 -0.3515625 -0.3515625Zm3.28125 0a0.3515625 0.3515625 0 0 1 0.3515625 -0.3515625h0.9375a0.3515625 0.3515625 0 0 1 0 0.703125h-0.9375a0.3515625 0.3515625 0 0 1 -0.3515625 -0.3515625Zm-4.921875 1.875a0.3515625 0.3515625 0 0 1 -0.3515625 0.3515625H3.75a0.3515625 0.3515625 0 0 1 0 -0.703125h0.9375a0.3515625 0.3515625 0 0 1 0.3515625 0.3515625Zm0 1.875a0.3515625 0.3515625 0 0 1 -0.3515625 0.3515625H3.75a0.3515625 0.3515625 0 0 1 0 -0.703125h0.9375a0.3515625 0.3515625 0 0 1 0.3515625 0.3515625Zm1.640625 -1.875a0.3515625 0.3515625 0 0 1 0.3515625 -0.3515625h0.9375a0.3515625 0.3515625 0 0 1 0 0.703125h-0.9375a0.3515625 0.3515625 0 0 1 -0.3515625 -0.3515625Zm3.28125 0a0.3515625 0.3515625 0 0 1 0.3515625 -0.3515625h0.9375a0.3515625 0.3515625 0 0 1 0 0.703125h-0.9375a0.3515625 0.3515625 0 0 1 -0.3515625 -0.3515625Zm0 1.875a0.3515625 0.3515625 0 0 1 0.3515625 -0.3515625h0.9375a0.3515625 0.3515625 0 0 1 0 0.703125h-0.9375a0.3515625 0.3515625 0 0 1 -0.3515625 -0.3515625Z"
        stroke-width="1"></path>
        <linearGradient id="gradientHover" x1="0%" y1="100%" x2="100%" y2="0%">
            <stop offset="0%" style="stop-color:rgb(163, 91, 248);stop-opacity:1" />
            <stop offset="100%" style="stop-color:rgb(71, 80, 235);stop-opacity:1" />
        </linearGradient>
</svg>