<svg xmlns="http://www.w3.org/2000/svg" viewBox="-0.5 -0.5 16 16" fill="rgb(173, 173, 173)"
    id="Potted-Plant-Light--Streamline-Phosphor" height="16" width="16">
    <desc>Potted Plant Light Streamline Icon: https://streamlinehq.com</desc>
    <path
        d="m6.9421230468749995 8.382626953125 1.5195703125 -1.5195703125c0.58812890625 0.312873046875 1.242533203125 0.48061523437500003 1.908650390625 0.48923437500000005 0.6315058593749999 0.001517578125 1.2511464843750002 -0.171533203125 1.7904843750000001 -0.5000390625000001 1.662234375 -1.0087265625 2.55207421875 -3.3525644531250003 2.377705078125 -6.27498046875 -0.01278515625 -0.218923828125 -0.187453125 -0.393591796875 -0.40637109374999997 -0.406376953125C11.209746093749999 -0.0005859375 8.863746093749999 0.891416015625 7.857181640625 2.54860546875c-0.664318359375 1.096623046875 -0.6628769531250001 2.428857421875 -0.010089843749999999 3.699849609375l-1.21046484375 1.21695703125 -1.05483984375 -1.0541191406250001c0.4553671875 -0.936673828125 0.44312109375 -1.916572265625 -0.048275390625 -2.72787890625 -0.75509765625 -1.2464941406249999 -2.49946875 -1.915130859375 -4.671826171875 -1.7876015625000001 -0.218923828125 0.01278515625 -0.393591796875 0.187453125 -0.406376953125 0.40637109374999997 -0.127529296875 2.17236328125 0.5411132812499999 3.9160136718749996 1.7861660156249999 4.67183203125 0.41214843749999996 0.25171289062499996 0.886048828125 0.38415234374999996 1.368978515625 0.38259375 0.473888671875 -0.0056953125 0.9402832031249999 -0.11902734375 1.363939453125 -0.33143554687500004l1.0505156249999998 1.05195703125 -0.720515625 0.720515625H2.02531640625c-0.3327890625 0 -0.54078515625 0.3602578125 -0.374390625 0.648462890625 0.0772265625 0.1337578125 0.21994335937499998 0.216158203125 0.374390625 0.216158203125h0.805541015625l0.9777421875000001 4.3951523437499995c0.09926953125 0.464056640625 0.5103925781249999 0.794876953125 0.984943359375 0.792568359375h4.83971484375c0.47428125 0.00196875 0.8850058593750001 -0.32878125 0.9842226562499999 -0.792568359375l0.9777421875000001 -4.3951523437499995h0.805541015625c0.3327890625 0 0.54078515625 -0.3602578125 0.374390625 -0.6484687499999999 -0.0772265625 -0.1337578125 -0.21994335937499998 -0.21615234375 -0.374390625 -0.21615234375H6.527109375l0.41501367187500005 -0.41501953125Zm1.657189453125 -5.382257812500001c0.792568359375 -1.31278125 2.68320703125 -2.041224609375 5.095494140625 -1.9814238281249998 0.059806640625 2.411572265625 -0.66863671875 4.30004296875 -1.9814179687500002 5.095494140625 -0.886236328125 0.536068359375 -1.951880859375 0.49859765624999997 -3.0110390624999996 -0.10303124999999999 -0.60235546875 -1.0591640625 -0.6398203125 -2.1248085937499996 -0.10303710937499999 -3.0110390624999996Zm-3.8662910156250003 3.1702734375c-0.720515625 0.40060546874999997 -1.4410371093749998 0.42294140625000004 -2.0419453125 0.060521484375 -0.897767578125 -0.5411074218749999 -1.404287109375 -1.828669921875 -1.3862753906249998 -3.485859375 1.657189453125 -0.020894531249999997 2.9454726562499998 0.48850781249999997 3.4887421875 1.3862753906249998 0.362419921875 0.598025390625 0.340083984375 1.319982421875 -0.060521484375 2.0419453125Zm5.97596484375 3.491625 -0.9366679687499999 4.209978515625c-0.014525390625 0.065982421875 -0.07294335937499999 0.11300976562500001 -0.140501953125 0.11312109375000001H4.79354296875c-0.06890625 0.0016054687500000001 -0.1293046875 -0.045802734374999994 -0.144099609375 -0.11312109375000001l-0.932349609375 -4.209978515625Z"
        stroke-width="1"></path>
        <linearGradient id="gradientHover" x1="0%" y1="100%" x2="100%" y2="0%">
            <stop offset="0%" style="stop-color:rgb(163, 91, 248);stop-opacity:1" />
            <stop offset="100%" style="stop-color:rgb(71, 80, 235);stop-opacity:1" />
        </linearGradient>
</svg>