<svg xmlns="http://www.w3.org/2000/svg" fill="none" viewBox="-0.75 -0.75 16 16" stroke="url(#gradientHover)" aria-hidden="true"
    id="Building-Office-2--Streamline-Heroicons-Outline" height="16" width="16">
    <desc>Building Office 2 Streamline Icon: https://streamlinehq.com</desc>
    <path stroke-linecap="round" stroke-linejoin="round"
        d="M1.359375 12.6875h11.78125m-10.875 -10.875v10.875m6.34375 -10.875v10.875m3.625 -8.15625V12.6875M4.078125 4.078125h0.453125m-0.453125 1.8125h0.453125m-0.453125 1.8125h0.453125m1.8125 -3.625h0.453125m-0.453125 1.8125h0.453125m-0.453125 1.8125h0.453125M4.078125 12.6875v-2.0390625c0 -0.37518749999999995 0.3045 -0.6796875 0.6796875 -0.6796875h1.359375c0.37518749999999995 0 0.6796875 0.3045 0.6796875 0.6796875V12.6875M1.8125 1.8125h7.25m-0.453125 2.71875H12.6875m-2.265625 2.265625h0.004833333333333333v0.004833333333333333h-0.004833333333333333v-0.004833333333333333Zm0 1.8125h0.004833333333333333v0.004833333333333333h-0.004833333333333333v-0.004833333333333333Zm0 1.8125h0.004833333333333333v0.004833333333333333h-0.004833333333333333v-0.004833333333333333Z"
        stroke-width="1.5"></path>
        
        <linearGradient id="gradientHover" x1="0%" y1="100%" x2="100%" y2="0%">
            <stop offset="0%" style="stop-color:rgb(163, 91, 248);stop-opacity:1" />
            <stop offset="100%" style="stop-color:rgb(71, 80, 235);stop-opacity:1" />
        </linearGradient>
</svg>