<svg xmlns="http://www.w3.org/2000/svg" viewBox="-0.5 -0.5 16 16" id="Rabbit-Fill--Streamline-Mingcute-Fill" height="16"
    width="16">
    <desc>Rabbit Fill Streamline Icon: https://streamlinehq.com</desc>
    <g fill="none" fill-rule="evenodd">
        <path
            d="M15 0v15H0V0h15ZM7.87125 14.536249999999999l-0.0075 0.00125 -0.044375 0.021875000000000002 -0.0125 0.0025 -0.00875 -0.0025 -0.044375 -0.0225c-0.00625 -0.001875 -0.011875 0 -0.015 0.00375l-0.0025 0.00625 -0.010625 0.2675 0.003125 0.0125 0.00625 0.008125 0.065 0.04625 0.009375 0.0025 0.0075 -0.0025 0.065 -0.04625 0.0075 -0.01 0.0025 -0.010625 -0.010625 -0.266875c-0.00125 -0.00625 -0.005625 -0.010625 -0.01 -0.01125Zm0.165 -0.07062500000000001 -0.00875 0.00125 -0.11499999999999999 0.058124999999999996 -0.00625 0.00625 -0.001875 0.006874999999999999 0.01125 0.26875 0.003125 0.0075 0.005 0.005 0.12562500000000001 0.057499999999999996c0.0075 0.0025 0.014374999999999999 0 0.018125000000000002 -0.005l0.0025 -0.00875 -0.02125 -0.38375c-0.001875 -0.0075 -0.00625 -0.0125 -0.0125 -0.013749999999999998Zm-0.44687499999999997 0.00125a0.014374999999999999 0.014374999999999999 0 0 0 -0.016875 0.00375l-0.00375 0.00875 -0.02125 0.38375c0 0.0075 0.004375 0.0125 0.010625 0.015l0.009375 -0.00125 0.12562500000000001 -0.058124999999999996 0.00625 -0.005 0.001875 -0.006874999999999999 0.01125 -0.26875 -0.001875 -0.0075 -0.00625 -0.00625 -0.11499999999999999 -0.057499999999999996Z"
            stroke-width="1"></path>
        <path fill="url(#gradientHover)"
            d="M7.5 6.90875C7.5 4.6875 6.875 3.125 6.29625 2.33375c-0.45499999999999996 -0.566875 -1.103125 -0.999375 -1.8375 -0.8025 -0.7337499999999999 0.19625 -1.0787499999999999 0.895 -1.189375 1.61375 -0.11374999999999999 0.7424999999999999 -0.02375 1.70625 0.279375 2.835625a13.71875 13.71875 0 0 0 0.714375 2.0125C3.58 8.581875 3.125 9.3875 3.125 10.3125c0 1.0174999999999998 0.55125 1.8912499999999999 1.348125 2.48875C5.2700000000000005 13.39875 6.341875 13.75 7.5 13.75c1.1575 0 2.23 -0.35125000000000006 3.026875 -0.94875S11.875 11.33 11.875 10.3125c0 -0.92625 -0.45499999999999996 -1.730625 -1.1375 -2.31875a13.71625 13.71625 0 0 0 0.7137499999999999 -2.0125c0.303125 -1.129375 0.393125 -2.09375 0.279375 -2.83625 -0.110625 -0.71875 -0.455625 -1.4175 -1.189375 -1.61375 -0.734375 -0.196875 -1.3825 0.235625 -1.8375 0.8025C8.125 3.125 7.5 4.6875 7.5 6.90875Zm-0.885625 3.7125000000000004a0.9375 0.9375 0 1 1 1.77125 0A0.315 0.315 0 0 0 8.4375 10.625a0.625 0.625 0 1 1 0 1.25 1.5562500000000001 1.5562500000000001 0 0 1 -0.9375 -0.3125 1.5562500000000001 1.5562500000000001 0 0 1 -0.9375 0.3125 0.625 0.625 0 1 1 0 -1.25 0.315 0.315 0 0 0 0.051875000000000004 -0.004375Z"
            stroke-width="1"></path>
    </g>
    <linearGradient id="gradientHover" x1="0%" y1="100%" x2="100%" y2="0%">
        <stop offset="0%" style="stop-color:rgb(163, 91, 248);stop-opacity:1" />
        <stop offset="100%" style="stop-color:rgb(71, 80, 235);stop-opacity:1" />
    </linearGradient>
</svg>