<svg xmlns="http://www.w3.org/2000/svg" viewBox="-0.5 -0.5 16 16" fill="none"
    id="Map-Simple-Destination--Streamline-Majesticons" height="16" width="16">
    <desc>Map Simple Destination Streamline Icon: https://streamlinehq.com</desc>
    <path fill="url(#gradientHover)" fill-rule="evenodd"
        d="M5.278125 1.98a0.625 0.625 0 0 1 0.62625 -0.03875L9.375 3.6762499999999996l3.470625 -1.7349999999999999A0.625 0.625 0 0 1 13.75 2.5v7.5a0.625 0.625 0 0 1 -0.278125 0.52l-3.75 2.5a0.625 0.625 0 0 1 -0.62625 0.03875L5.625 11.323749999999999l-3.470625 1.7349999999999999A0.625 0.625 0 0 1 1.25 12.5V5a0.625 0.625 0 0 1 0.278125 -0.52l3.75 -2.5zM3.125 7.5a0.625 0.625 0 1 0 1.25 0 0.625 0.625 0 1 0 -1.25 0v0.000625zm3.125 0.625a0.625 0.625 0 0 1 -0.625 -0.625 0.625 0.625 0 1 1 1.25 0v0.000625a0.625 0.625 0 0 1 -0.625 0.625zm2.941875 -2.3175a0.625 0.625 0 1 0 -0.8837499999999999 0.8837499999999999L9.11625 7.5l-0.808125 0.808125a0.625 0.625 0 0 0 0.8837499999999999 0.8837499999999999L10 8.38375l0.808125 0.808125a0.625 0.625 0 0 0 0.8837499999999999 -0.8837499999999999L10.883750000000001 7.5l0.808125 -0.808125a0.625 0.625 0 0 0 -0.8837499999999999 -0.8837499999999999L10 6.61625l-0.808125 -0.808125z"
        clip-rule="evenodd" stroke-width="1"></path>
        <linearGradient id="gradientHover" x1="0%" y1="100%" x2="100%" y2="0%">
            <stop offset="0%" style="stop-color:rgb(163, 91, 248);stop-opacity:1" />
            <stop offset="100%" style="stop-color:rgb(71, 80, 235);stop-opacity:1" />
        </linearGradient>
        
</svg>


