<svg xmlns="http://www.w3.org/2000/svg" fill="none" viewBox="-0.5 -0.5 24 24"
    id="Forest--Streamline-Outlined----Material-Symbols" height="24" width="24">
    <desc>Forest Streamline Icon: https://streamlinehq.com</desc>
    <path fill="rgb(173, 173, 173)"
        d="M7.259375 21.083333333333336v-3.5697916666666667H0l4.528125 -6.564583333333333H2.2520833333333337L8.625 1.9166666666666667l2.875 4.072916666666667L14.375 1.9166666666666667l6.372916666666668 9.032291666666667h-2.2520833333333337l4.504166666666667 6.564583333333333H15.764583333333333V21.083333333333336h-2.7552083333333335v-3.5697916666666667H10.014583333333333V21.083333333333336h-2.7552083333333335ZM16.291666666666668 16.076041666666665h3.953125l-4.528125 -6.564583333333333h2.1322916666666667L14.375 4.576041666666667l-1.9166666666666667 2.7552083333333335 2.5395833333333333 3.6177083333333333h-2.2520833333333337l3.545833333333334 5.127083333333333Zm-13.512500000000001 0h11.715625l-4.528125 -6.564583333333333h2.1322916666666667L8.625 4.576041666666667l-3.4739583333333335 4.935416666666667h2.15625L2.779166666666667 16.076041666666665Zm0 0h4.528125H2.779166666666667Zm13.512500000000001 0h-3.545833333333334H12.458333333333334h5.390625H16.291666666666668Z"
        stroke-width="1"></path>
        <linearGradient id="gradientHover" x1="0%" y1="100%" x2="100%" y2="0%">
            <stop offset="0%" style="stop-color:rgb(163, 91, 248);stop-opacity:1" />
            <stop offset="100%" style="stop-color:rgb(71, 80, 235);stop-opacity:1" />
        </linearGradient>
</svg>