<svg xmlns="http://www.w3.org/2000/svg" viewBox="-0.5 -0.5 16 16" fill="url(#gradientHover)"
    id="Building-Apartment-Fill--Streamline-Phosphor-Fill" height="16" width="16">
    <desc>Building Apartment Fill Streamline Icon: https://streamlinehq.com</desc>
    <path
        d="M14.0625 12.1875h-0.46875V4.21875a0.46875 0.46875 0 0 0 -0.46875 -0.46875h-2.34375V2.34375a0.46875 0.46875 0 0 0 -0.46875 -0.46875H4.6875a0.46875 0.46875 0 0 0 -0.46875 0.46875v3.28125H1.875a0.46875 0.46875 0 0 0 -0.46875 0.46875v6.09375h-0.46875a0.46875 0.46875 0 0 0 0 0.9375h13.125a0.46875 0.46875 0 0 0 0 -0.9375ZM4.6875 10.3125H3.75a0.46875 0.46875 0 0 1 0 -0.9375h0.9375a0.46875 0.46875 0 0 1 0 0.9375Zm0 -1.875H3.75a0.46875 0.46875 0 0 1 0 -0.9375h0.9375a0.46875 0.46875 0 0 1 0 0.9375Zm3.75 3.75h-1.875v-2.34375h1.875Zm-0.46875 -3.75h-0.9375a0.46875 0.46875 0 0 1 0 -0.9375h0.9375a0.46875 0.46875 0 0 1 0 0.9375Zm0 -1.875h-0.9375a0.46875 0.46875 0 0 1 0 -0.9375h0.9375a0.46875 0.46875 0 0 1 0 0.9375Zm0 -1.875h-0.9375a0.46875 0.46875 0 0 1 0 -0.9375h0.9375a0.46875 0.46875 0 0 1 0 0.9375Zm3.28125 5.625h-0.9375a0.46875 0.46875 0 0 1 0 -0.9375h0.9375a0.46875 0.46875 0 0 1 0 0.9375Zm0 -1.875h-0.9375a0.46875 0.46875 0 0 1 0 -0.9375h0.9375a0.46875 0.46875 0 0 1 0 0.9375Zm0 -1.875h-0.9375a0.46875 0.46875 0 0 1 0 -0.9375h0.9375a0.46875 0.46875 0 0 1 0 0.9375Z"
        stroke-width="1"></path>
        <linearGradient id="gradientHover" x1="0%" y1="100%" x2="100%" y2="0%">
            <stop offset="0%" style="stop-color:rgb(163, 91, 248);stop-opacity:1" />
            <stop offset="100%" style="stop-color:rgb(71, 80, 235);stop-opacity:1" />
        </linearGradient>
        
</svg>